<svg width="74" height="69" viewBox="0 0 74 69" fill="none" xmlns="http://www.w3.org/2000/svg">
<path d="M41.9679 3.46022C43.0773 4.29199 43.792 5.25558 44.5872 6.33398C45.3701 7.22286 46.0771 7.71728 47.3378 7.88936C48.5295 7.86684 49.6261 7.81215 50.7805 7.5313C52.8811 7.03558 54.6181 7.23534 56.5643 8.0566C58.3409 9.06463 59.3518 10.4229 59.9349 12.2267C60.1932 13.3132 60.0539 14.4676 60.0047 15.575C59.9769 16.8639 60.1614 17.7014 60.9432 18.8253C61.8147 19.6093 62.7634 20.0429 63.8625 20.5161C65.7844 21.3601 67.1558 22.5166 67.9495 24.3409C68.4538 26.353 68.2808 28.0511 67.165 29.873C66.6174 30.4988 66.0912 30.9917 65.4499 31.531C64.4206 32.441 63.7813 33.2818 63.5706 34.5843C63.661 35.904 64.1927 37.0454 64.7748 38.245C65.6014 40.051 65.6491 41.6473 64.8295 43.4651C63.9554 45.0325 62.6535 46.1025 60.9432 46.9288C60.3908 47.0405 59.8345 47.137 59.2761 47.2212C58.9869 47.2657 58.6978 47.3102 58.3998 47.356C58.0693 47.4046 58.0693 47.4046 57.732 47.4541C57.8732 47.7518 58.0144 48.0494 58.1598 48.356C58.6924 49.4793 59.2244 50.6028 59.7561 51.7264C59.9847 52.2091 60.2134 52.6917 60.4423 53.1743C61.0971 54.5546 61.7472 55.9366 62.3932 57.3203C62.6796 57.928 62.973 58.5325 63.2681 59.1368C63.4353 59.4884 63.6022 59.84 63.769 60.1916C63.915 60.4924 64.0609 60.7932 64.2113 61.1032C64.4837 62.0263 64.3638 62.3887 63.8625 63.2132C61.563 63.0695 59.4699 62.402 57.2941 61.7522C56.911 61.6393 56.5279 61.5266 56.1447 61.4141C55.2135 61.14 54.283 60.8641 53.3531 60.5866C53.2718 60.8168 53.1905 61.047 53.1067 61.2841C52.582 62.6498 51.8744 63.9301 51.1819 65.2323C51.0387 65.5067 50.8955 65.7811 50.748 66.0638C50.6085 66.3267 50.4691 66.5896 50.3255 66.8605C50.1992 67.0994 50.073 67.3383 49.9429 67.5845C49.3039 68.6121 49.3039 68.6121 48.6822 68.9915C47.9581 69.0133 47.9581 69.0133 47.2226 68.7288C46.7151 68.0237 46.7151 68.0237 46.2556 67.0667C46.1705 66.8928 46.0854 66.7188 45.9978 66.5395C45.3121 65.1207 44.6736 63.6832 44.0296 62.2487C43.9324 62.0325 43.8352 61.8163 43.7351 61.5935C43.6374 61.3757 43.5396 61.1578 43.4389 60.9334C43.3408 60.7148 43.2427 60.4962 43.1416 60.2709C42.9408 59.8199 42.7422 59.3681 42.5457 58.9156C42.2563 58.2512 41.9579 57.5906 41.6577 56.9301C41.5725 56.7282 41.4873 56.5263 41.3995 56.3183C40.934 55.3148 40.5901 54.7379 39.4604 54.2841C38.556 54.0446 38.0136 53.9437 37.0963 54.0696C36.7785 54.1077 36.7785 54.1077 36.4543 54.1466C35.4922 54.3594 34.8478 54.5476 34.3134 55.3296C34.215 55.5429 34.1165 55.7563 34.015 55.9762C33.844 56.3392 33.844 56.3392 33.6696 56.7096C33.5507 56.9719 33.4317 57.2343 33.3092 57.5046C33.1833 57.7741 33.0575 58.0436 32.9278 58.3213C32.5255 59.1845 32.1287 60.0496 31.7321 60.915C31.3333 61.7761 30.9335 62.6368 30.5333 63.4973C30.2846 64.033 30.0369 64.5692 29.7905 65.1057C28.5311 67.8385 28.5311 67.8385 27.9553 68.7288C27.1707 68.9586 27.1707 68.9586 26.4956 68.9915C25.6394 68.0848 25.017 67.2045 24.4476 66.1321C24.2933 65.8424 24.139 65.5528 23.98 65.2543C23.8227 64.9545 23.6654 64.6547 23.5033 64.3458C23.3415 64.043 23.1797 63.7401 23.013 63.4281C21.8248 61.1833 21.8248 61.1833 21.8248 60.5866C21.5583 60.6662 21.2917 60.7458 21.0172 60.8278C20.025 61.1234 19.0319 61.4165 18.0384 61.7088C17.6092 61.8355 17.1803 61.9629 16.7516 62.091C16.1341 62.2754 15.5157 62.4572 14.8971 62.6386C14.7067 62.6961 14.5163 62.7535 14.3201 62.8127C13.2872 63.1127 12.4014 63.2785 11.3153 63.2132C10.8494 62.4213 10.6917 62.0437 10.9358 61.16C11.0652 60.8912 11.1945 60.6225 11.3278 60.3455C11.4715 60.0407 11.6152 59.7359 11.7632 59.4218C11.924 59.0933 12.0849 58.7647 12.2458 58.4362C12.4068 58.0988 12.5673 57.7612 12.7273 57.4234C13.0588 56.7255 13.3929 56.0288 13.7293 55.3329C14.222 54.3121 14.7048 53.2877 15.1845 52.2619C15.9348 50.6579 16.6888 49.0555 17.4458 47.4541C17.2305 47.424 17.0152 47.3939 16.7934 47.3629C16.3656 47.2989 16.3656 47.2989 15.9292 47.2336C15.6476 47.1926 15.3661 47.1517 15.076 47.1095C13.4241 46.7548 12.1182 45.9974 11.1306 44.7517C10.0354 43.0232 9.62015 41.5636 9.85566 39.5746C10.1004 38.8901 10.4015 38.248 10.7212 37.5894C11.3515 36.2519 11.837 34.97 11.37 33.5337C10.7868 32.3416 9.74803 31.5515 8.71531 30.6661C7.3719 29.4641 7.06638 28.2255 6.93751 26.5775C6.93436 24.7526 7.62348 23.082 8.97987 21.7144C10.2 20.9025 11.5105 20.3004 12.8844 19.7281C14.0821 19.138 14.6826 18.4041 15.1104 17.2494C15.1092 16.737 15.1065 16.2245 15.0911 15.7123C15.0154 13.0915 15.1539 10.9826 17.228 8.9769C18.9941 7.60834 20.9965 7.16572 23.2844 7.26865C23.8514 7.40246 24.4184 7.53637 24.9847 7.67288C26.5381 7.96898 27.9787 8.00573 29.4514 7.44922C30.2559 6.77261 30.7836 6.1285 31.4037 5.31518C34.1064 1.81944 38.0187 1.6837 41.9679 3.46022ZM34.3777 5.69274C33.9938 6.16438 33.6174 6.64098 33.2465 7.1209C32.0164 8.70889 30.6927 9.78787 28.5391 10.1578C26.7473 10.2739 25.3013 10.084 23.5763 9.6325C22.1946 9.47929 21.2366 9.50067 19.9819 10.0757C19.0464 10.8 18.2921 11.5241 17.7377 12.5217C17.739 13.0575 17.742 13.5935 17.7568 14.1292C17.8282 16.7604 17.7933 18.9114 15.6942 20.9265C14.749 21.488 13.7361 21.9343 12.7293 22.3987C11.185 23.1375 10.1393 23.8379 9.56373 25.3915C9.41631 26.9831 9.60243 28.0482 10.7314 29.3313C11.121 29.6867 11.5167 30.0366 11.9174 30.3819C13.4297 31.7095 13.9788 32.865 14.0886 34.7648C14.0544 36.3082 13.5203 37.4295 12.8126 38.8154C12.3136 39.9649 12.226 40.991 12.483 42.2011C13.1772 43.4983 14.0269 44.1215 15.4023 44.8276C16.2091 45.0213 17.0196 45.1128 17.8472 45.2052C20.1209 45.5135 21.6989 45.9605 23.2981 47.5065C24.07 48.5024 24.3817 49.5539 24.7378 50.707C25.2324 52.1829 25.9351 53.2749 27.4125 54.1117C28.9076 54.5676 29.9059 54.5968 31.3786 54.0645C32.3418 53.6193 33.2238 53.0936 34.1017 52.5245C35.7026 51.5585 37.79 51.785 39.6324 51.9192C40.8586 52.2488 41.7295 52.7875 42.6977 53.5279C43.6775 54.1891 44.5379 54.4806 45.7629 54.5457C47.4373 54.3269 48.4596 53.8518 49.5249 52.6362C50.0627 51.8845 50.2957 51.0844 50.5615 50.2284C51.1815 48.4115 51.8111 47.1332 53.6131 46.0814C54.9703 45.4527 56.2783 45.2576 57.7868 45.0903C59.9103 44.8517 60.7794 44.5205 62.2204 43.0876C62.8744 41.8656 62.9481 40.9081 62.6948 39.5746C62.4688 39.0539 62.2244 38.5395 61.965 38.0316C61.0702 36.2472 60.8264 34.5867 61.4188 32.6801C62.0455 31.3855 63.0816 30.5232 64.2012 29.559C65.2249 28.6243 65.6528 27.7349 65.7236 26.4421C65.6732 25.4092 65.3774 24.688 64.7383 23.8156C63.6984 22.9827 62.6277 22.4439 61.3811 21.895C59.3901 20.9457 58.4636 20.2001 57.6967 18.2599C57.3514 16.9001 57.4299 15.6356 57.5142 14.2509C57.5596 12.8318 57.3199 12.076 56.2724 10.9458C54.8737 9.83715 54.1096 9.57535 52.2903 9.58838C51.5383 9.6147 51.5383 9.6147 50.598 9.89515C48.4378 10.4407 46.287 10.3609 44.3033 9.36985C43.035 8.42842 42.0962 7.21209 41.1103 6.03542C40.2901 5.21079 39.5522 4.72185 38.329 4.52826C36.6557 4.52588 35.6484 4.62408 34.3777 5.69274ZM20.0732 47.9794C18.528 51.1185 16.9837 54.2579 15.4935 57.4184C15.3454 57.7302 15.3454 57.7302 15.1942 58.0482C14.7015 59.0207 14.7015 59.0207 14.5265 60.0613C16.4048 59.7352 18.1832 59.2474 19.9803 58.6633C21.0205 58.3353 21.8892 58.1508 22.9925 58.2228C24.3484 60.466 25.66 62.7058 26.7875 65.0517C27.5408 64.374 27.7894 63.7058 28.1947 62.8181C28.2717 62.6505 28.3486 62.4828 28.4279 62.31C28.59 61.9559 28.7514 61.6015 28.9122 61.2469C29.1592 60.7022 29.4083 60.1583 29.6578 59.6145C30.4718 58.1633 30.4718 58.1633 30.8746 56.6469C30.61 56.6273 30.3455 56.6076 30.0729 56.5874C27.7519 56.362 25.8334 56.0993 24.1602 54.5457C23.2101 53.2969 22.7 51.9746 22.2626 50.5239C21.8982 49.3271 21.4444 48.746 20.3651 47.9794C20.2688 47.9794 20.1724 47.9794 20.0732 47.9794ZM54.8127 47.9794C53.5689 48.953 53.0513 49.8283 52.6233 51.2297C51.9714 53.1425 51.364 54.4121 49.5763 55.6784C47.9778 56.4263 46.0674 56.4796 44.3033 56.6469C45.4803 59.4826 46.7802 62.2673 48.0984 65.0517C48.7603 64.3043 49.2402 63.5667 49.688 62.7012C49.8156 62.4569 49.9432 62.2126 50.0746 61.9609C50.2052 61.7079 50.3358 61.4548 50.4703 61.194C50.732 60.6894 50.9943 60.1849 51.2571 59.6807C51.3723 59.4577 51.4875 59.2347 51.6062 59.0049C51.8934 58.4854 51.8934 58.4854 52.1854 58.2228C53.9858 58.3373 55.5465 58.7459 57.2394 59.2898C57.7001 59.4362 58.1611 59.5816 58.6226 59.7259C58.8233 59.7902 59.024 59.8546 59.2308 59.9209C59.8214 60.0975 59.8214 60.0975 60.6513 60.0613C60.097 58.498 59.4726 56.9816 58.7526 55.4742C58.6581 55.2747 58.5635 55.0753 58.4661 54.8698C58.2681 54.4531 58.0696 54.0367 57.8706 53.6205C57.5658 52.9821 57.2637 52.3427 56.9617 51.7032C56.7682 51.2967 56.5745 50.8902 56.3807 50.4838C56.2907 50.2929 56.2007 50.1019 56.1079 49.9052C55.746 49.1525 55.4634 48.5649 54.8127 47.9794Z" fill="#483527"/>
<path d="M47.948 17.8392C51.4583 20.8944 53.9084 24.9813 54.2969 29.7431C54.5904 34.6648 53.5345 39.1962 50.2998 43.0034C47.1664 46.4789 43.1869 48.8827 38.4737 49.1075C33.641 49.2416 29.2624 48.2215 25.5933 44.8375C21.8346 41.2048 19.8071 36.77 19.6562 31.5037C19.8783 26.5423 21.7363 21.9656 25.3047 18.5308C31.7359 13.0116 41.2824 12.3321 47.948 17.8392ZM27.5892 19.8882C27.3638 20.0604 27.1385 20.2327 26.9063 20.4101C24.3836 22.5848 22.5376 26.1635 22.1765 29.5105C21.8835 34.2359 22.8932 38.1273 25.9041 41.7758C28.7386 44.8623 32.3056 46.5101 36.4376 46.8995C40.5484 47.0042 44.2422 45.3862 47.3454 42.7069C49.9853 40.1418 51.7789 36.435 52.0012 32.7141C52.0541 28.4526 51.0817 24.382 48.1129 21.1748C44.1902 17.529 40.2381 16.2987 35.0492 16.528C32.2088 16.778 29.778 18.0811 27.5892 19.8882Z" fill="#483527"/>
<path d="M46.4298 22.4244C47.5898 23.0704 48.1535 23.6423 48.4907 24.8485C48.7573 26.4337 48.2649 27.2713 47.2831 28.5172C46.486 29.431 45.635 30.2922 44.7679 31.1506C44.0663 31.8594 43.4058 32.5886 42.7494 33.3326C41.6628 34.5613 40.5302 35.7403 39.3647 36.9066C38.8708 37.4094 38.405 37.9204 37.9466 38.4501C36.9575 39.4841 36.4846 39.6302 34.9839 39.7631C32.9947 39.7059 31.7783 38.4536 30.4675 37.2149C25.4035 32.248 25.4035 32.248 25.4438 29.9922C25.5803 29.0477 26.0239 28.5144 26.7032 27.8112C27.9401 26.9955 28.9692 26.8602 30.441 27.0642C31.7142 27.4551 32.5579 28.2916 33.475 29.1579C33.7407 29.4009 34.0063 29.644 34.2801 29.8944C34.5002 30.0957 34.7203 30.2971 34.9471 30.5046C35.3461 30.085 35.7451 29.6654 36.1437 29.2455C36.4895 28.8813 36.8358 28.5174 37.1825 28.1539C38.0304 27.2622 38.8683 26.3665 39.6775 25.445C39.8174 25.2875 39.9574 25.1299 40.1015 24.9676C40.3625 24.6723 40.6204 24.3747 40.8745 24.0745C42.4195 22.3387 44.1038 21.9097 46.4298 22.4244ZM43.2796 25.2409C42.9828 25.5393 42.6897 25.8407 42.3998 26.1447C42.2443 26.3033 42.0888 26.4618 41.9285 26.6252C40.3079 28.2907 38.7829 30.0283 37.2565 31.7661C37.0531 31.9886 36.8497 32.2112 36.6401 32.4404C36.4625 32.6387 36.2848 32.8369 36.1018 33.0412C35.536 33.4673 35.536 33.4673 34.8448 33.6388C33.6222 33.3703 33.0383 32.6038 32.2421 31.7503C32.0851 31.5878 31.9282 31.4253 31.7665 31.2579C31.4753 30.9563 31.1858 30.6533 30.8986 30.3485C30.5928 30.0304 30.2693 29.7267 29.9419 29.4272C28.9683 29.5053 28.9683 29.5053 28.1753 29.9659C28.0807 30.7508 28.0712 31.1701 28.5574 31.8354C28.733 31.9986 28.9087 32.1618 29.0897 32.33C29.2823 32.5128 29.4749 32.6956 29.6733 32.8839C29.8773 33.0709 30.0813 33.2578 30.2915 33.4505C30.6887 33.8229 31.0855 34.1957 31.4819 34.5689C31.6733 34.7462 31.8647 34.9236 32.062 35.1063C32.5422 35.5738 32.9594 36.0532 33.3795 36.5657C33.9893 37.2781 33.9893 37.2781 34.7861 37.4369C35.9021 37.141 36.4962 36.4535 37.2289 35.6725C37.3833 35.5137 37.5377 35.355 37.6968 35.1914C38.8626 33.9833 39.9799 32.7393 41.0829 31.483C41.74 30.7504 42.422 30.0453 43.1175 29.3431C43.3342 29.1236 43.5509 28.9042 43.7742 28.6781C44.1339 28.3166 44.496 27.9569 44.8622 27.6008C45.4829 26.9738 45.8226 26.57 45.9697 25.7238C45.8939 25.0659 45.8939 25.0659 45.2521 24.5791C44.0404 24.4583 44.0404 24.4583 43.2796 25.2409Z" fill="#483527"/>
</svg>
