<svg width="53" height="52" viewBox="0 0 53 52" fill="none" xmlns="http://www.w3.org/2000/svg">
<path d="M25.4672 52C21.9508 52 18.6439 51.3163 15.5463 49.9489C12.4487 48.5796 9.75392 46.7249 7.46188 44.3849C5.16795 42.043 3.35129 39.2908 2.01191 36.1284C0.670635 32.9661 0 29.5899 0 26C0 22.4101 0.669692 19.0339 2.00908 15.8716C3.34846 12.7092 5.16606 9.958 7.46188 7.618C9.7577 5.278 12.4525 3.42237 15.5463 2.05111C18.6457 0.683704 21.9527 0 25.4672 0C32.0622 0 37.7518 2.22156 42.5358 6.66467C47.3199 11.1078 50.0581 16.5957 50.7504 23.1284H47.8868C47.3906 18.9473 45.9116 15.1946 43.4498 11.8704C40.988 8.5463 37.8235 6.09363 33.9562 4.51244V5.77778C33.9562 7.36667 33.4025 8.72733 32.2952 9.85978C31.1878 10.9922 29.8551 11.5575 28.2969 11.5556H22.6375V17.3333C22.6375 18.1519 22.3658 18.8384 21.8225 19.3931C21.2792 19.9478 20.6077 20.2241 19.8078 20.2222H14.1484V26H19.372V34.6667H16.9781L3.39562 20.8C3.25414 21.6667 3.12492 22.5333 3.00796 23.4C2.891 24.2667 2.83157 25.1333 2.82968 26C2.82968 32.3074 4.99911 37.7241 9.33796 42.25C13.6768 46.7759 19.0532 49.063 25.4672 49.1111V52ZM50.9994 51.22L41.237 41.3689C40.3919 41.9833 39.476 42.4647 38.4894 42.8133C37.5028 43.16 36.4633 43.3333 35.3711 43.3333C32.5961 43.3333 30.2522 42.3569 28.3393 40.404C26.4245 38.4473 25.4672 36.0533 25.4672 33.2222C25.4672 30.3911 26.4245 27.9981 28.3393 26.0433C30.254 24.0885 32.598 23.1111 35.3711 23.1111C38.1442 23.1111 40.489 24.0885 42.4057 26.0433C44.3223 27.9981 45.2787 30.3911 45.275 33.2222C45.275 34.3739 45.0957 35.4621 44.7373 36.4867C44.3789 37.5132 43.879 38.4579 43.2376 39.3207L53 49.1776L50.9994 51.22ZM35.3711 40.4444C37.3518 40.4444 39.0261 39.7463 40.3938 38.35C41.7614 36.9537 42.4453 35.2444 42.4453 33.2222C42.4453 31.2 41.7614 29.4907 40.3938 28.0944C39.0261 26.6981 37.3518 26 35.3711 26C33.3903 26 31.7161 26.6981 30.3484 28.0944C28.9807 29.4907 28.2969 31.2 28.2969 33.2222C28.2969 35.2444 28.9807 36.9537 30.3484 38.35C31.7161 39.7463 33.3903 40.4444 35.3711 40.4444Z" fill="#493628"/>
</svg>
