<svg width="48" height="60" viewBox="0 0 48 60" fill="none" xmlns="http://www.w3.org/2000/svg">
<path d="M24.0012 0C10.8096 0 0 10.0248 0 22.2588C0 26.9988 1.6284 31.4034 4.3836 35.025L21.0726 58.083C23.4096 60.9222 24.963 60.3834 26.9064 57.933L45.3144 32.574C45.6864 31.9482 45.978 31.2822 46.2324 30.6024C47.3682 28.0212 48 25.206 48 22.2588C48 10.0248 37.1934 0 24.0012 0ZM19.3284 12.8748C20.9688 12.8748 22.5312 13.7256 23.9358 14.4942C25.3398 13.7256 26.9022 12.8748 28.5426 12.8742C33.5916 12.8742 37.7142 16.7082 37.7142 21.4044V21.423C37.6518 25.395 34.2126 29.0748 31.0044 31.977C27.7962 34.8798 24.6132 36.9438 24.6132 36.9438C24.3764 37.0947 24.1011 37.174 23.8203 37.1722C23.5395 37.1704 23.2652 37.0875 23.0304 36.9336C23.0304 36.9336 20.049 34.9506 16.9728 32.0904C13.8966 29.2302 10.5792 25.5324 10.164 21.5268C10.1597 21.4861 10.1575 21.4453 10.1574 21.4044C10.1574 16.7088 14.2794 12.8748 19.3284 12.8748Z" fill="#493628"/>
</svg>
