<svg width="59" height="69" viewBox="0 0 59 69" fill="none" xmlns="http://www.w3.org/2000/svg">
<path d="M55.8755 9.80098C46.8709 9.80098 38.7878 8.16869 31.494 0.860126C30.9425 0.30936 30.195 0 29.4156 0C28.6362 0 27.8887 0.30936 27.3373 0.860126C20.0238 8.16869 11.9358 9.80098 2.94107 9.80098C2.16105 9.80098 1.41298 10.1108 0.86142 10.6624C0.309862 11.214 0 11.962 0 12.7421V30.3983C0 49.329 9.65652 62.1962 28.4794 68.4753C29.0839 68.6772 29.7376 68.6772 30.3421 68.4753C49.1698 62.2011 58.8214 49.329 58.8214 30.3983V12.7421C58.8214 11.1196 57.4979 9.80098 55.8755 9.80098ZM53.9147 30.3934C53.9147 47.0398 45.8954 57.912 29.4058 63.6079C12.9162 57.912 4.89688 47.0398 4.89688 30.3934V14.6783C12.6368 14.4871 21.3277 12.9675 29.4107 5.64427C37.4791 12.9626 46.1748 14.4822 53.9147 14.6783V30.3934ZM26.95 38.197L39.9201 25.2269C40.148 24.999 40.4185 24.8183 40.7163 24.6949C41.014 24.5716 41.3331 24.5081 41.6554 24.5081C41.9776 24.5081 42.2967 24.5716 42.5945 24.6949C42.8922 24.8183 43.1627 24.999 43.3906 25.2269C43.6185 25.4548 43.7992 25.7253 43.9226 26.023C44.0459 26.3208 44.1094 26.6399 44.1094 26.9621C44.1094 27.2844 44.0459 27.6035 43.9226 27.9012C43.7992 28.199 43.6185 28.4695 43.3906 28.6974L28.6852 43.4027C28.4576 43.631 28.1871 43.812 27.8894 43.9356C27.5916 44.0592 27.2724 44.1228 26.95 44.1228C26.6276 44.1228 26.3084 44.0592 26.0107 43.9356C25.7129 43.812 25.4425 43.631 25.2148 43.4027L17.8621 36.05C17.4019 35.5898 17.1433 34.9657 17.1433 34.3148C17.1433 33.664 17.4019 33.0398 17.8621 32.5796C18.3223 32.1194 18.9465 31.8608 19.5973 31.8608C20.2482 31.8608 20.8724 32.1194 21.3326 32.5796L26.95 38.197Z" fill="#493628"/>
</svg>
