<svg width="14" height="14" viewBox="0 0 14 14" fill="none" xmlns="http://www.w3.org/2000/svg">
<path d="M12.7125 13.5C11.15 13.5 9.60625 13.1595 8.08125 12.4785C6.55625 11.7975 5.16875 10.8317 3.91875 9.58125C2.66875 8.33075 1.70325 6.94325 1.02225 5.41875C0.34125 3.89425 0.0005 2.3505 0 0.7875C0 0.5625 0.075 0.375 0.225 0.225C0.375 0.075 0.5625 0 0.7875 0H3.825C4 0 4.15625 0.0594999 4.29375 0.1785C4.43125 0.2975 4.5125 0.438 4.5375 0.6L5.025 3.225C5.05 3.425 5.04375 3.59375 5.00625 3.73125C4.96875 3.86875 4.9 3.9875 4.8 4.0875L2.98125 5.925C3.23125 6.3875 3.528 6.83425 3.8715 7.26525C4.215 7.69625 4.59325 8.112 5.00625 8.5125C5.39375 8.9 5.8 9.2595 6.225 9.591C6.65 9.9225 7.1 10.2255 7.575 10.5L9.3375 8.7375C9.45 8.625 9.597 8.54075 9.7785 8.48475C9.96 8.42875 10.138 8.413 10.3125 8.4375L12.9 8.9625C13.075 9.0125 13.2187 9.10325 13.3312 9.23475C13.4437 9.36625 13.5 9.513 13.5 9.675V12.7125C13.5 12.9375 13.425 13.125 13.275 13.275C13.125 13.425 12.9375 13.5 12.7125 13.5Z" fill="white"/>
</svg>
