<svg width="120" height="120" viewBox="0 0 120 120" fill="none" xmlns="http://www.w3.org/2000/svg">
<rect width="120" height="120" rx="60" fill="#FFCC00"/>
<path d="M60.0026 66.8245C60.9718 66.8245 61.9316 66.6414 62.827 66.2855C63.7225 65.9296 64.5361 65.408 65.2215 64.7505M60.0026 66.8245C58.0451 66.8245 56.1679 66.0785 54.7837 64.7504M60.0026 66.8245V72.1362M65.2215 64.7505C65.9068 64.0929 66.4505 63.3122 66.8214 62.4531C67.1923 61.5939 67.3832 60.6731 67.3832 59.7432M65.2215 64.7505L69.1373 68.5075M67.3832 59.7432C67.3832 58.8132 67.1923 57.8924 66.8214 57.0332C66.4505 56.1741 65.9068 55.3934 65.2215 54.7359M67.3832 59.7432H72.9193M65.2215 54.7359C64.5361 54.0783 63.7225 53.5567 62.827 53.2008C61.9316 52.845 60.9718 52.6618 60.0026 52.6618M65.2215 54.7359L69.1373 50.9788M60.0026 52.6618C58.0451 52.6618 56.1679 53.4079 54.7837 54.7359M60.0026 52.6618V47.3501M54.7837 54.7359C53.3996 56.0639 52.622 57.8651 52.622 59.7432M54.7837 54.7359L50.8679 50.9788M52.622 59.7432C52.622 61.6213 53.3996 63.4224 54.7837 64.7504M52.622 59.7432H47.0859M54.7837 64.7504L50.8679 68.5075M58.7729 47.3501H61.2323M68.2667 50.146L70.0053 51.8141M72.9193 58.5633V60.923M70.0053 67.6722L68.2667 69.3403M61.2323 72.1362H58.7729M51.7385 69.3403L49.9999 67.6722M47.0859 60.923V58.5633M49.9999 51.8141L51.7385 50.146M31.5859 32.4785L44.5026 44.8715M31.5859 32.4785V42.3929M31.5859 32.4785H41.9193M88.4193 32.4785L75.5026 44.8715M88.4193 32.4785H78.0859M88.4193 32.4785V42.3929M88.4193 87.0078L75.5026 74.6148M88.4193 87.0078V77.0934M88.4193 87.0078H78.0859M31.5859 87.0078L44.5026 74.6148M31.5859 87.0078H41.9193M31.5859 87.0078V77.0934" stroke="#493628" stroke-width="1.5" stroke-linecap="round" stroke-linejoin="round"/>
</svg>
