<svg width="120" height="120" viewBox="0 0 120 120" fill="none" xmlns="http://www.w3.org/2000/svg">
<rect width="120" height="120" rx="60" fill="#FFCC00"/>
<g clip-path="url(#clip0_2257_5374)">
<path fill-rule="evenodd" clip-rule="evenodd" d="M59.9983 37.7695C60.345 37.7552 60.6904 37.8213 61.0073 37.9625C61.3242 38.1038 61.6042 38.3165 61.8253 38.584C62.1853 39.0205 62.2686 39.5605 62.3046 39.9542C62.3406 40.3637 62.3406 40.888 62.3406 41.4842V78.6092C62.3406 79.2055 62.3406 79.7297 62.3046 80.1392C62.2686 80.533 62.1853 81.073 61.8253 81.5095C61.6042 81.777 61.3242 81.9896 61.0073 82.1309C60.6904 82.2722 60.345 82.3383 59.9983 82.324C59.4313 82.3015 58.9746 82 58.6596 81.7637C58.2602 81.447 57.8729 81.1152 57.4986 80.7692L50.2311 74.2442C49.8148 73.8685 49.7293 73.801 49.6461 73.7537C49.5503 73.7 49.4472 73.6606 49.3401 73.6367C49.2478 73.6142 49.1376 73.6097 48.5773 73.6097H44.9548C43.1076 73.6097 41.6473 73.6097 40.4773 73.513C39.2826 73.4162 38.2836 73.2115 37.3723 72.7502C35.8918 71.9926 34.6874 70.7882 33.9298 69.3077C33.4686 68.401 33.2638 67.402 33.1671 66.2027C33.0703 65.0327 33.0703 63.5702 33.0703 61.7252V58.4852C33.0703 56.6402 33.0703 55.1777 33.1671 54.0077C33.2638 52.8152 33.4686 51.814 33.9298 50.9027C34.6874 49.4223 35.8918 48.2179 37.3723 47.4602C38.2791 46.999 39.2781 46.7942 40.4773 46.6975C41.6496 46.603 43.1098 46.603 44.9548 46.603H48.5773C49.1376 46.603 49.2478 46.5962 49.3401 46.576C49.4473 46.5514 49.5504 46.5112 49.6461 46.4567C49.7293 46.4117 49.8148 46.342 50.2311 45.9662L57.4986 39.4412C57.9418 39.043 58.3311 38.692 58.6596 38.4445C58.9746 38.2082 59.4313 37.909 59.9983 37.8842V37.7695ZM60.0096 40.132C59.7711 40.312 59.4583 40.591 58.9656 41.0342L51.6733 47.5817C51.3583 47.8675 51.0793 48.1172 50.7508 48.3017C50.4623 48.4641 50.1515 48.5831 49.8283 48.655C49.4439 48.7241 49.0531 48.7512 48.6628 48.736H45.0178C43.1098 48.736 41.7553 48.736 40.6753 48.826C39.6178 48.9115 38.9496 49.0757 38.4028 49.348C37.3474 49.8868 36.4891 50.7451 35.9503 51.8005C35.6758 52.3405 35.5116 53.0065 35.4261 54.073C35.3361 55.1417 35.3361 56.503 35.3361 58.4155V61.5655C35.3361 63.4735 35.3361 64.828 35.4261 65.908C35.5116 66.9655 35.6781 67.6337 35.9503 68.1805C36.4903 69.238 37.3498 70.0997 38.4028 70.633C38.9406 70.9075 39.6088 71.0717 40.6753 71.1572C41.7441 71.2472 43.1053 71.2472 45.0178 71.2472H48.6628C49.0881 71.2472 49.4638 71.2472 49.8306 71.3282C50.1531 71.4002 50.4598 71.518 50.7508 71.6815C51.0793 71.8637 51.3561 72.118 51.6733 72.4015L58.9633 78.949C59.3151 79.2762 59.6799 79.5892 60.0568 79.8872L60.0613 79.8265C60.0887 79.3673 60.0984 78.9072 60.0906 78.4472V41.5472C60.0985 41.067 60.0873 40.5866 60.0568 40.1072L60.0073 40.1432L60.0096 40.132Z" fill="#493628"/>
<path d="M73.0534 38.8944C73.1265 38.766 73.2242 38.6533 73.3409 38.5627C73.4576 38.472 73.591 38.4053 73.7335 38.3662C73.876 38.3271 74.0248 38.3165 74.1714 38.335C74.318 38.3534 74.4595 38.4005 74.5879 38.4737C82.0579 42.7262 87.0979 50.7812 87.0979 59.9837C87.0979 69.2312 82.0354 77.2862 74.5429 81.5387C74.2848 81.6669 73.9874 81.6914 73.7118 81.6072C73.4362 81.5229 73.2034 81.3364 73.0611 81.0858C72.9188 80.8352 72.8779 80.5396 72.9467 80.2598C73.0156 79.9799 73.189 79.7371 73.4314 79.5812C80.2489 75.7112 84.8614 68.3987 84.8614 59.9837C84.8614 51.6137 80.2939 44.3012 73.4989 40.4312C73.3705 40.3581 73.2578 40.2604 73.1671 40.1437C73.0765 40.027 73.0097 39.8936 72.9707 39.7511C72.9316 39.6086 72.921 39.4598 72.9394 39.3132C72.9578 39.1666 73.005 39.0251 73.0781 38.8967L73.0534 38.8944Z" fill="#493628"/>
<path d="M70.1266 46.2972C69.867 46.1498 69.5595 46.1115 69.2717 46.1909C68.984 46.2702 68.7395 46.4606 68.5921 46.7202C68.4447 46.9798 68.4065 47.2873 68.4858 47.575C68.5651 47.8628 68.7555 48.1073 69.0151 48.2547C71.0904 49.434 72.8161 51.1422 74.0167 53.2053C75.2172 55.2683 75.8497 57.6127 75.8497 59.9997C75.8497 62.3866 75.2172 64.731 74.0167 66.7941C72.8161 68.8572 71.0904 70.5653 69.0151 71.7447C68.7555 71.8921 68.5651 72.1365 68.4858 72.4243C68.4065 72.7121 68.4447 73.0196 68.5921 73.2792C68.7395 73.5388 68.984 73.7291 69.2717 73.8085C69.5595 73.8878 69.867 73.8496 70.1266 73.7022C72.5526 72.3307 74.5706 70.3392 75.9741 67.9315C77.3776 65.5239 78.1161 62.7865 78.1141 59.9997C78.1141 54.1272 74.8966 48.9972 70.1266 46.2972Z" fill="#493628"/>
</g>
<defs>
<clipPath id="clip0_2257_5374">
<rect width="54" height="54" fill="white" transform="translate(33 33)"/>
</clipPath>
</defs>
</svg>
