<svg width="120" height="120" viewBox="0 0 120 120" fill="none" xmlns="http://www.w3.org/2000/svg">
<rect width="120" height="120" rx="60" fill="#FFCC00"/>
<path d="M60.0041 70.332C62.185 70.332 64.2765 69.5066 65.8186 68.0375C67.3607 66.5683 68.227 64.5757 68.227 62.498C68.227 60.4203 67.3607 58.4277 65.8186 56.9586C64.2765 55.4894 62.185 54.6641 60.0041 54.6641C57.8233 54.6641 55.7318 55.4894 54.1897 56.9586C52.6476 58.4277 51.7812 60.4203 51.7812 62.498C51.7812 64.5757 52.6476 66.5683 54.1897 68.0375C55.7318 69.5066 57.8233 70.332 60.0041 70.332Z" stroke="#493628" stroke-linecap="round" stroke-linejoin="round"/>
<path d="M97 62.5C97 62.5 84.6667 86 60 86C35.3333 86 23 62.5 23 62.5C23 62.5 35.3333 39 60 39C84.6667 39 97 62.5 97 62.5Z" stroke="#493628" stroke-linecap="round" stroke-linejoin="round"/>
</svg>
