<svg width="120" height="120" viewBox="0 0 120 120" fill="none" xmlns="http://www.w3.org/2000/svg">
<rect width="120" height="120" rx="60" fill="#FFCC00"/>
<path d="M50 80V88M38 32H62C63.0609 32 64.0783 32.4214 64.8284 33.1716C65.5786 33.9217 66 34.9391 66 36V87.5C66 87.6326 65.9473 87.7598 65.8536 87.8536C65.7598 87.9473 65.6326 88 65.5 88H34V36C34 34.9391 34.4214 33.9217 35.1716 33.1716C35.9217 32.4214 36.9391 32 38 32ZM68 52H82C83.0609 52 84.0783 52.4214 84.8284 53.1716C85.5786 53.9217 86 54.9391 86 56V88H66V54C66 53.4696 66.2107 52.9609 66.5858 52.5858C66.9609 52.2107 67.4696 52 68 52Z" stroke="#493628" stroke-width="4" stroke-linecap="round" stroke-linejoin="round"/>
<path d="M40.2594 81.9831C39.8452 82.0373 39.4244 81.9604 39.0561 81.7632C38.6878 81.5661 38.3905 81.2586 38.2059 80.8838C38.0213 80.5091 37.9586 80.0859 38.0268 79.6738C38.0949 79.2616 38.2904 78.8812 38.5858 78.5858C38.8812 78.2904 39.2616 78.0949 39.6738 78.0268C40.0859 77.9586 40.5091 78.0213 40.8838 78.2059C41.2586 78.3905 41.5661 78.6878 41.7632 79.0561C41.9604 79.4244 42.0373 79.8451 41.9831 80.2594C41.9259 80.6965 41.7259 81.1025 41.4142 81.4142C41.1025 81.7259 40.6965 81.9259 40.2594 81.9831ZM40.2594 71.9831C39.8452 72.0373 39.4244 71.9604 39.0561 71.7632C38.6878 71.5661 38.3905 71.2586 38.2059 70.8838C38.0213 70.5091 37.9586 70.0859 38.0268 69.6738C38.0949 69.2616 38.2904 68.8812 38.5858 68.5858C38.8812 68.2904 39.2616 68.0949 39.6738 68.0268C40.0859 67.9586 40.5091 68.0213 40.8838 68.2059C41.2586 68.3905 41.5661 68.6878 41.7632 69.0561C41.9604 69.4244 42.0373 69.8451 41.9831 70.2594C41.9259 70.6965 41.7259 71.1025 41.4142 71.4142C41.1025 71.7259 40.6965 71.9259 40.2594 71.9831ZM40.2594 61.9831C39.8452 62.0373 39.4244 61.9604 39.0561 61.7632C38.6878 61.5661 38.3905 61.2586 38.2059 60.8838C38.0213 60.5091 37.9586 60.0859 38.0268 59.6738C38.0949 59.2616 38.2904 58.8812 38.5858 58.5858C38.8812 58.2904 39.2616 58.0949 39.6738 58.0268C40.0859 57.9586 40.5091 58.0213 40.8838 58.2059C41.2586 58.3905 41.5661 58.6878 41.7632 59.0561C41.9604 59.4244 42.0373 59.8451 41.9831 60.2594C41.9259 60.6965 41.7259 61.1025 41.4142 61.4142C41.1025 61.7259 40.6965 61.9259 40.2594 61.9831ZM40.2594 51.9831C39.8452 52.0373 39.4244 51.9604 39.0561 51.7632C38.6878 51.5661 38.3905 51.2586 38.2059 50.8838C38.0213 50.5091 37.9586 50.0859 38.0268 49.6738C38.0949 49.2616 38.2904 48.8812 38.5858 48.5858C38.8812 48.2904 39.2616 48.0949 39.6738 48.0268C40.0859 47.9586 40.5091 48.0213 40.8838 48.2059C41.2586 48.3905 41.5661 48.6878 41.7632 49.0561C41.9604 49.4244 42.0373 49.8451 41.9831 50.2594C41.9259 50.6965 41.7259 51.1025 41.4142 51.4142C41.1025 51.7259 40.6965 51.9259 40.2594 51.9831ZM40.2594 41.9831C39.8452 42.0373 39.4244 41.9604 39.0561 41.7632C38.6878 41.5661 38.3905 41.2586 38.2059 40.8838C38.0213 40.5091 37.9586 40.0859 38.0268 39.6738C38.0949 39.2616 38.2904 38.8812 38.5858 38.5858C38.8812 38.2904 39.2616 38.0949 39.6738 38.0268C40.0859 37.9586 40.5091 38.0213 40.8838 38.2059C41.2586 38.3905 41.5661 38.6878 41.7632 39.0561C41.9604 39.4244 42.0373 39.8452 41.9831 40.2594C41.9259 40.6965 41.7259 41.1025 41.4142 41.4142C41.1025 41.7259 40.6965 41.9259 40.2594 41.9831ZM50.2594 71.9831C49.8451 72.0373 49.4244 71.9604 49.0561 71.7632C48.6878 71.5661 48.3905 71.2586 48.2059 70.8838C48.0213 70.5091 47.9586 70.0859 48.0268 69.6738C48.0949 69.2616 48.2904 68.8812 48.5858 68.5858C48.8812 68.2904 49.2616 68.0949 49.6738 68.0268C50.0859 67.9586 50.5091 68.0213 50.8838 68.2059C51.2586 68.3905 51.5661 68.6878 51.7632 69.0561C51.9604 69.4244 52.0373 69.8451 51.9831 70.2594C51.9259 70.6965 51.7259 71.1025 51.4142 71.4142C51.1025 71.7259 50.6965 71.9259 50.2594 71.9831ZM50.2594 61.9831C49.8451 62.0373 49.4244 61.9604 49.0561 61.7632C48.6878 61.5661 48.3905 61.2586 48.2059 60.8838C48.0213 60.5091 47.9586 60.0859 48.0268 59.6738C48.0949 59.2616 48.2904 58.8812 48.5858 58.5858C48.8812 58.2904 49.2616 58.0949 49.6738 58.0268C50.0859 57.9586 50.5091 58.0213 50.8838 58.2059C51.2586 58.3905 51.5661 58.6878 51.7632 59.0561C51.9604 59.4244 52.0373 59.8451 51.9831 60.2594C51.9259 60.6965 51.7259 61.1025 51.4142 61.4142C51.1025 61.7259 50.6965 61.9259 50.2594 61.9831ZM50.2594 51.9831C49.8451 52.0373 49.4244 51.9604 49.0561 51.7632C48.6878 51.5661 48.3905 51.2586 48.2059 50.8838C48.0213 50.5091 47.9586 50.0859 48.0268 49.6738C48.0949 49.2616 48.2904 48.8812 48.5858 48.5858C48.8812 48.2904 49.2616 48.0949 49.6738 48.0268C50.0859 47.9586 50.5091 48.0213 50.8838 48.2059C51.2586 48.3905 51.5661 48.6878 51.7632 49.0561C51.9604 49.4244 52.0373 49.8451 51.9831 50.2594C51.9259 50.6965 51.7259 51.1025 51.4142 51.4142C51.1025 51.7259 50.6965 51.9259 50.2594 51.9831ZM50.2594 41.9831C49.8451 42.0373 49.4244 41.9604 49.0561 41.7632C48.6878 41.5661 48.3905 41.2586 48.2059 40.8838C48.0213 40.5091 47.9586 40.0859 48.0268 39.6738C48.0949 39.2616 48.2904 38.8812 48.5858 38.5858C48.8812 38.2904 49.2616 38.0949 49.6738 38.0268C50.0859 37.9586 50.5091 38.0213 50.8838 38.2059C51.2586 38.3905 51.5661 38.6878 51.7632 39.0561C51.9604 39.4244 52.0373 39.8452 51.9831 40.2594C51.9259 40.6965 51.7259 41.1025 51.4142 41.4142C51.1025 41.7259 50.6965 41.9259 50.2594 41.9831ZM60.2594 81.9831C59.8451 82.0373 59.4244 81.9604 59.0561 81.7632C58.6878 81.5661 58.3905 81.2586 58.2059 80.8838C58.0213 80.5091 57.9586 80.0859 58.0268 79.6738C58.0949 79.2616 58.2904 78.8812 58.5858 78.5858C58.8812 78.2904 59.2616 78.0949 59.6738 78.0268C60.0859 77.9586 60.5091 78.0213 60.8838 78.2059C61.2586 78.3905 61.5661 78.6878 61.7632 79.0561C61.9604 79.4244 62.0373 79.8451 61.9831 80.2594C61.9259 80.6965 61.7259 81.1025 61.4142 81.4142C61.1025 81.7259 60.6965 81.9259 60.2594 81.9831ZM60.2594 71.9831C59.8451 72.0373 59.4244 71.9604 59.0561 71.7632C58.6878 71.5661 58.3905 71.2586 58.2059 70.8838C58.0213 70.5091 57.9586 70.0859 58.0268 69.6738C58.0949 69.2616 58.2904 68.8812 58.5858 68.5858C58.8812 68.2904 59.2616 68.0949 59.6738 68.0268C60.0859 67.9586 60.5091 68.0213 60.8838 68.2059C61.2586 68.3905 61.5661 68.6878 61.7632 69.0561C61.9604 69.4244 62.0373 69.8451 61.9831 70.2594C61.9259 70.6965 61.7259 71.1025 61.4142 71.4142C61.1025 71.7259 60.6965 71.9259 60.2594 71.9831ZM60.2594 61.9831C59.8451 62.0373 59.4244 61.9604 59.0561 61.7632C58.6878 61.5661 58.3905 61.2586 58.2059 60.8838C58.0213 60.5091 57.9586 60.0859 58.0268 59.6738C58.0949 59.2616 58.2904 58.8812 58.5858 58.5858C58.8812 58.2904 59.2616 58.0949 59.6738 58.0268C60.0859 57.9586 60.5091 58.0213 60.8838 58.2059C61.2586 58.3905 61.5661 58.6878 61.7632 59.0561C61.9604 59.4244 62.0373 59.8451 61.9831 60.2594C61.9259 60.6965 61.7259 61.1025 61.4142 61.4142C61.1025 61.7259 60.6965 61.9259 60.2594 61.9831Z" fill="#493628"/>
<path d="M61.4154 51.4161C62.194 50.6375 62.1908 49.372 61.4083 48.5895C60.6258 47.807 59.3603 47.8038 58.5817 48.5824C57.8031 49.361 57.8062 50.6265 58.5887 51.4091C59.3713 52.1916 60.6368 52.1947 61.4154 51.4161Z" fill="#493628"/>
<path d="M60.2594 41.9831C59.8451 42.0373 59.4244 41.9604 59.0561 41.7632C58.6878 41.5661 58.3905 41.2586 58.2059 40.8838C58.0213 40.5091 57.9586 40.0859 58.0268 39.6738C58.0949 39.2616 58.2904 38.8812 58.5858 38.5858C58.8812 38.2904 59.2616 38.0949 59.6738 38.0268C60.0859 37.9586 60.5091 38.0213 60.8838 38.2059C61.2586 38.3905 61.5661 38.6878 61.7632 39.0561C61.9604 39.4244 62.0373 39.8452 61.9831 40.2594C61.9259 40.6965 61.7259 41.1025 61.4142 41.4142C61.1025 41.7259 60.6965 41.9259 60.2594 41.9831ZM77.9994 77.9994C77.6038 77.9994 77.2171 78.1167 76.8882 78.3364C76.5593 78.5562 76.303 78.8685 76.1516 79.234C76.0002 79.5994 75.9606 80.0016 76.0378 80.3895C76.115 80.7775 76.3054 81.1339 76.5851 81.4136C76.8649 81.6933 77.2212 81.8838 77.6092 81.9609C77.9971 82.0381 78.3993 81.9985 78.7647 81.8471C79.1302 81.6957 79.4425 81.4394 79.6623 81.1105C79.8821 80.7816 79.9994 80.3949 79.9994 79.9994C79.9994 79.4689 79.7887 78.9602 79.4136 78.5851C79.0385 78.2101 78.5298 77.9994 77.9994 77.9994ZM77.9994 67.9994C77.6038 67.9994 77.2171 68.1167 76.8882 68.3364C76.5593 68.5562 76.303 68.8685 76.1516 69.234C76.0002 69.5994 75.9606 70.0016 76.0378 70.3895C76.115 70.7775 76.3054 71.1339 76.5851 71.4136C76.8649 71.6933 77.2212 71.8838 77.6092 71.9609C77.9971 72.0381 78.3993 71.9985 78.7647 71.8471C79.1302 71.6957 79.4425 71.4394 79.6623 71.1105C79.8821 70.7816 79.9994 70.3949 79.9994 69.9994C79.9994 69.4689 79.7887 68.9602 79.4136 68.5851C79.0385 68.2101 78.5298 67.9994 77.9994 67.9994ZM77.9994 57.9994C77.6038 57.9994 77.2171 58.1167 76.8882 58.3364C76.5593 58.5562 76.303 58.8685 76.1516 59.234C76.0002 59.5994 75.9606 60.0016 76.0378 60.3895C76.115 60.7775 76.3054 61.1339 76.5851 61.4136C76.8649 61.6933 77.2212 61.8838 77.6092 61.9609C77.9971 62.0381 78.3993 61.9985 78.7647 61.8471C79.1302 61.6957 79.4425 61.4394 79.6623 61.1105C79.8821 60.7816 79.9994 60.3949 79.9994 59.9994C79.9994 59.4689 79.7887 58.9602 79.4136 58.5851C79.0385 58.2101 78.5298 57.9994 77.9994 57.9994ZM69.9994 77.9994C69.6038 77.9994 69.2171 78.1167 68.8882 78.3364C68.5593 78.5562 68.303 78.8685 68.1516 79.234C68.0002 79.5994 67.9606 80.0016 68.0378 80.3895C68.115 80.7775 68.3054 81.1339 68.5851 81.4136C68.8649 81.6933 69.2212 81.8838 69.6092 81.9609C69.9971 82.0381 70.3993 81.9985 70.7647 81.8471C71.1302 81.6957 71.4425 81.4394 71.6623 81.1105C71.8821 80.7816 71.9994 80.3949 71.9994 79.9994C71.9994 79.4689 71.7887 78.9602 71.4136 78.5851C71.0385 78.2101 70.5298 77.9994 69.9994 77.9994ZM69.9994 67.9994C69.6038 67.9994 69.2171 68.1167 68.8882 68.3364C68.5593 68.5562 68.303 68.8685 68.1516 69.234C68.0002 69.5994 67.9606 70.0016 68.0378 70.3895C68.115 70.7775 68.3054 71.1339 68.5851 71.4136C68.8649 71.6933 69.2212 71.8838 69.6092 71.9609C69.9971 72.0381 70.3993 71.9985 70.7647 71.8471C71.1302 71.6957 71.4425 71.4394 71.6623 71.1105C71.8821 70.7816 71.9994 70.3949 71.9994 69.9994C71.9994 69.4689 71.7887 68.9602 71.4136 68.5851C71.0385 68.2101 70.5298 67.9994 69.9994 67.9994ZM69.9994 57.9994C69.6038 57.9994 69.2171 58.1167 68.8882 58.3364C68.5593 58.5562 68.303 58.8685 68.1516 59.234C68.0002 59.5994 67.9606 60.0016 68.0378 60.3895C68.115 60.7775 68.3054 61.1339 68.5851 61.4136C68.8649 61.6933 69.2212 61.8838 69.6092 61.9609C69.9971 62.0381 70.3993 61.9985 70.7647 61.8471C71.1302 61.6957 71.4425 61.4394 71.6623 61.1105C71.8821 60.7816 71.9994 60.3949 71.9994 59.9994C71.9994 59.4689 71.7887 58.9602 71.4136 58.5851C71.0385 58.2101 70.5298 57.9994 69.9994 57.9994Z" fill="#493628"/>
</svg>
