<svg width="120" height="120" viewBox="0 0 120 120" fill="none" xmlns="http://www.w3.org/2000/svg">
<rect width="120" height="120" rx="60" fill="#FFCC00"/>
<path fill-rule="evenodd" clip-rule="evenodd" d="M60.4951 29C52.8701 29 48.634 31.0666 48.634 31.0666V39.3332L42.6543 45.4108C41.6495 46.4321 42.2544 48.1457 43.6709 48.249C47.0886 48.4953 52.8785 48.8053 60.4951 48.8053C64.233 48.8053 67.5304 48.7312 70.3229 48.6262H70.2941C70.7109 50.1604 70.7735 51.7717 70.4768 53.3346C70.1801 54.8974 69.5322 56.3695 68.5836 57.6359C67.635 58.9024 66.4115 59.929 65.0083 60.6357C63.6051 61.3424 62.0602 61.7101 60.4942 61.7101C58.9282 61.7101 57.3834 61.3424 55.9802 60.6357C54.577 59.929 53.3534 58.9024 52.4048 57.6359C51.4563 56.3695 50.8084 54.8974 50.5117 53.3346C50.215 51.7717 50.2775 50.1604 50.6944 48.6262C49.4394 48.5791 48.2894 48.5274 47.2445 48.4712C46.8178 50.4809 46.8391 52.5622 47.3068 54.5626C47.7744 56.5629 48.6766 58.4314 49.9473 60.0313C51.2179 61.6311 52.8247 62.9216 54.6498 63.8082C56.475 64.6947 58.4722 65.1549 60.4951 65.1549C62.518 65.1549 64.5152 64.6947 66.3404 63.8082C68.1655 62.9216 69.7723 61.6311 71.0429 60.0313C72.3135 58.4314 73.2157 56.5629 73.6834 54.5626C74.1511 52.5622 74.1723 50.4809 73.7456 48.4712C74.9375 48.4078 76.1287 48.3332 77.3192 48.2473C78.7358 48.1439 79.3407 46.4321 78.3359 45.4108L72.3545 39.3332V31.0666C72.3545 31.0666 68.1201 29 60.4951 29ZM52.0229 40.7592L47.8003 45.0509C51.0706 45.2179 55.3609 45.3609 60.4951 45.3609C65.6292 45.3609 69.9196 45.2179 73.1899 45.0509L68.9673 40.7592V33.5122L68.4556 33.3744C66.69 32.9197 64.0026 32.4444 60.4951 32.4444C56.9876 32.4444 54.3002 32.9197 52.5346 33.3744C52.3538 33.4203 52.1833 33.4662 52.0229 33.5122V40.7592Z" fill="#493628"/>
<path fill-rule="evenodd" clip-rule="evenodd" d="M60.9915 66.963L72.0765 70.3161L81.5773 63.7442C81.832 63.5678 82.1292 63.4654 82.437 63.448C82.7447 63.4306 83.0513 63.4988 83.3237 63.6453C83.5961 63.7918 83.8241 64.011 83.983 64.2794C84.142 64.5478 84.2259 64.8552 84.2257 65.1684V73.7794H80.8368V68.4234L74.059 73.1112V87.557C74.059 88.8796 74.5487 90.0886 75.3536 91.0014H45.6534C46.4582 90.0886 46.9479 88.8796 46.9479 87.557V72.9786L40.1701 68.3872V73.7794H36.7813V65.1684C36.7812 64.8567 36.8644 64.5507 37.0221 64.2832C37.1797 64.0157 37.4058 63.7968 37.6763 63.6497C37.9468 63.5026 38.2515 63.4329 38.5579 63.448C38.8643 63.4631 39.1609 63.5625 39.4161 63.7356L49.0677 70.2748L60.0138 66.963C60.1726 66.9146 60.3376 66.8903 60.5035 66.8906C60.6447 66.8906 60.7842 66.9084 60.922 66.944L60.9356 66.9475L60.9915 66.963ZM62.1979 70.9223L70.6701 73.4849V87.557H62.1979V70.9223ZM50.3368 73.4849L58.809 70.9223V87.557H50.3368V73.4849Z" fill="#493628"/>
<path fill-rule="evenodd" clip-rule="evenodd" d="M35.0833 80.667C34.6339 80.667 34.203 80.8485 33.8852 81.1715C33.5674 81.4944 33.3889 81.9325 33.3889 82.3892V87.5558H38.4722C38.9216 87.5558 39.3526 87.3744 39.6704 87.0514C39.9881 86.7284 40.1667 86.2904 40.1667 85.8336V82.3892C40.1667 81.9325 39.9881 81.4944 39.6704 81.1715C39.3526 80.8485 38.9216 80.667 38.4722 80.667H35.0833ZM30 82.3892C30 81.019 30.5356 79.7048 31.4889 78.7359C32.4422 77.767 33.7351 77.2227 35.0833 77.2227H38.4722C39.8204 77.2227 41.1134 77.767 42.0667 78.7359C43.02 79.7048 43.5556 81.019 43.5556 82.3892V85.8336C43.5556 87.2039 43.02 88.518 42.0667 89.487C41.1134 90.4559 39.8204 91.0002 38.4722 91.0002H30V82.3892ZM85.9167 80.667C86.3661 80.667 86.7971 80.8485 87.1148 81.1715C87.4326 81.4944 87.6111 81.9325 87.6111 82.3892V87.5558H82.5278C82.0784 87.5558 81.6474 87.3744 81.3296 87.0514C81.0119 86.7284 80.8333 86.2904 80.8333 85.8336V82.3892C80.8333 81.9325 81.0119 81.4944 81.3296 81.1715C81.6474 80.8485 82.0784 80.667 82.5278 80.667H85.9167ZM91 82.3892C91 81.019 90.4644 79.7048 89.5111 78.7359C88.5578 77.767 87.2649 77.2227 85.9167 77.2227H82.5278C81.1796 77.2227 79.8866 77.767 78.9333 78.7359C77.98 79.7048 77.4444 81.019 77.4444 82.3892V85.8336C77.4444 87.2039 77.98 88.518 78.9333 89.487C79.8866 90.4559 81.1796 91.0002 82.5278 91.0002H91V82.3892Z" fill="#493628"/>
</svg>
