<svg width="120" height="120" viewBox="0 0 120 120" fill="none" xmlns="http://www.w3.org/2000/svg">
<rect width="120" height="120" rx="60" fill="#FFCC00"/>
<g clip-path="url(#clip0_2705_4402)">
<path d="M47.1582 79.6635C48.3643 80.2758 49.4497 81.0272 50.4146 81.9179C51.3794 82.8085 52.2144 83.8104 52.9194 84.9237C53.6245 86.037 54.1533 87.2245 54.5059 88.4862C54.8584 89.7479 55.0439 91.0653 55.0625 92.4384H51.5C51.5 90.9725 51.2217 89.5902 50.665 88.2914C50.1084 86.9926 49.3477 85.8607 48.3828 84.8959C47.418 83.931 46.2769 83.161 44.9595 82.5858C43.6421 82.0106 42.2598 81.7323 40.8125 81.7509C39.3281 81.7509 37.9458 82.0292 36.6655 82.5858C35.3853 83.1425 34.2534 83.9032 33.27 84.8681C32.2866 85.8329 31.5166 86.974 30.96 88.2914C30.4033 89.6088 30.125 90.9911 30.125 92.4384H26.5625C26.5625 91.0839 26.748 89.7758 27.1191 88.5141C27.4902 87.2523 28.019 86.0648 28.7056 84.9516C29.3921 83.8383 30.2178 82.8363 31.1826 81.9457C32.1475 81.0551 33.2422 80.2943 34.4668 79.6635C33.0938 78.643 32.0269 77.3812 31.2661 75.8783C30.5054 74.3754 30.125 72.7704 30.125 71.0634C30.125 69.5975 30.4033 68.2152 30.96 66.9164C31.5166 65.6176 32.2773 64.4857 33.2422 63.5209C34.207 62.556 35.3389 61.786 36.6377 61.2108C37.9365 60.6356 39.3281 60.3573 40.8125 60.3759C42.5195 60.3759 44.1245 60.7562 45.6274 61.517C47.1304 62.2777 48.3921 63.3446 49.4126 64.7177C50.1177 63.3261 51.0176 62.0829 52.1123 60.9882C53.207 59.8934 54.4502 58.9935 55.8418 58.2885C54.4688 57.268 53.4019 56.0062 52.6411 54.5033C51.8804 53.0004 51.5 51.3954 51.5 49.6884C51.5 48.2225 51.7783 46.8402 52.335 45.5414C52.8916 44.2426 53.6523 43.1107 54.6172 42.1459C55.582 41.181 56.7139 40.411 58.0127 39.8358C59.3115 39.2606 60.7031 38.9823 62.1875 39.0009C63.6533 39.0009 65.0356 39.2792 66.3345 39.8358C67.6333 40.3925 68.7651 41.1532 69.73 42.1181C70.6948 43.0829 71.4648 44.224 72.04 45.5414C72.6152 46.8588 72.8936 48.2411 72.875 49.6884C72.875 51.3954 72.4946 53.0004 71.7339 54.5033C70.9731 56.0062 69.9062 57.268 68.5332 58.2885C69.7393 58.9008 70.8247 59.6522 71.7896 60.5429C72.7544 61.4335 73.5894 62.4354 74.2944 63.5487C74.9995 64.662 75.5283 65.8495 75.8809 67.1112C76.2334 68.3729 76.4189 69.6903 76.4375 71.0634H72.875C72.875 69.5975 72.5967 68.2152 72.04 66.9164C71.4834 65.6176 70.7227 64.4857 69.7578 63.5209C68.793 62.556 67.6519 61.786 66.3345 61.2108C65.0171 60.6356 63.6348 60.3573 62.1875 60.3759C60.7031 60.3759 59.3208 60.6542 58.0405 61.2108C56.7603 61.7675 55.6284 62.5282 54.645 63.4931C53.6616 64.4579 52.8916 65.599 52.335 66.9164C51.7783 68.2338 51.5 69.6161 51.5 71.0634C51.5 72.7704 51.1196 74.3754 50.3589 75.8783C49.5981 77.3812 48.5312 78.643 47.1582 79.6635ZM55.0625 49.6884C55.0625 50.6718 55.248 51.5902 55.6191 52.4437C55.9902 53.2973 56.5005 54.058 57.1499 54.726C57.7993 55.3939 58.5508 55.9042 59.4043 56.2567C60.2578 56.6093 61.1855 56.7948 62.1875 56.8134C63.1709 56.8134 64.0894 56.6278 64.9429 56.2567C65.7964 55.8856 66.5571 55.3754 67.2251 54.726C67.8931 54.0766 68.4033 53.3251 68.7559 52.4716C69.1084 51.6181 69.2939 50.6903 69.3125 49.6884C69.3125 48.705 69.127 47.7865 68.7559 46.933C68.3848 46.0795 67.8745 45.3187 67.2251 44.6508C66.5757 43.9828 65.8242 43.4725 64.9707 43.12C64.1172 42.7675 63.1895 42.5819 62.1875 42.5634C61.2041 42.5634 60.2856 42.7489 59.4321 43.12C58.5786 43.4911 57.8179 44.0014 57.1499 44.6508C56.4819 45.3002 55.9717 46.0517 55.6191 46.9052C55.2666 47.7587 55.0811 48.6864 55.0625 49.6884ZM33.6875 71.0634C33.6875 72.0468 33.873 72.9652 34.2441 73.8187C34.6152 74.6723 35.1255 75.433 35.7749 76.101C36.4243 76.7689 37.1758 77.2792 38.0293 77.6317C38.8828 77.9843 39.8105 78.1698 40.8125 78.1884C41.7959 78.1884 42.7144 78.0028 43.5679 77.6317C44.4214 77.2606 45.1821 76.7504 45.8501 76.101C46.5181 75.4516 47.0283 74.7001 47.3809 73.8466C47.7334 72.9931 47.9189 72.0653 47.9375 71.0634C47.9375 70.08 47.752 69.1615 47.3809 68.308C47.0098 67.4545 46.4995 66.6937 45.8501 66.0258C45.2007 65.3578 44.4492 64.8475 43.5957 64.495C42.7422 64.1425 41.8145 63.9569 40.8125 63.9384C39.8291 63.9384 38.9106 64.1239 38.0571 64.495C37.2036 64.8661 36.4429 65.3764 35.7749 66.0258C35.1069 66.6752 34.5967 67.4267 34.2441 68.2802C33.8916 69.1337 33.7061 70.0614 33.6875 71.0634ZM75.5469 96.0009L67.5312 89.7387L59.5156 96.0009L62.7441 85.9813L55.0625 79.9696H64.6646L67.5312 71.0634L70.3979 79.9696H80L72.3184 85.9813L75.5469 96.0009Z" fill="black"/>
</g>
<defs>
<clipPath id="clip0_2705_4402">
<rect width="57" height="57" fill="white" transform="translate(23 39)"/>
</clipPath>
</defs>
</svg>
