<svg width="120" height="120" viewBox="0 0 120 120" fill="none" xmlns="http://www.w3.org/2000/svg">
<rect width="120" height="120" rx="60" fill="#FFCC00"/>
<path d="M62.4518 96.5585L62.4156 96.5651L62.1819 96.6803L62.116 96.6935L62.07 96.6803L61.8362 96.5651C61.8011 96.5541 61.7748 96.5596 61.7572 96.5815L61.7441 96.6145L61.6881 98.0233L61.7046 98.0891L61.7375 98.1319L62.0798 98.3755L62.1292 98.3887L62.1687 98.3755L62.511 98.1319L62.5505 98.0792L62.5637 98.0233L62.5077 96.6177C62.499 96.5826 62.4803 96.5629 62.4518 96.5585ZM63.3241 96.1865L63.2813 96.1931L62.6723 96.4992L62.6394 96.5322L62.6295 96.5684L62.6888 97.9838L62.7052 98.0233L62.7316 98.0463L63.3932 98.3525C63.4349 98.3634 63.4667 98.3547 63.4887 98.3261L63.5018 98.28L63.3899 96.259C63.3789 96.2195 63.357 96.1953 63.3241 96.1865ZM60.9705 96.1931C60.956 96.1843 60.9387 96.1815 60.9221 96.1852C60.9056 96.1888 60.8911 96.1988 60.8817 96.2129L60.8619 96.259L60.75 98.28C60.7522 98.3195 60.7708 98.3459 60.806 98.359L60.8553 98.3525L61.517 98.0463L61.5499 98.02L61.563 97.9838L61.619 96.5684L61.6091 96.5289L61.5762 96.496L60.9705 96.1931Z" fill="#493628"/>
<path d="M72.8865 33.168C74.7201 33.168 76.5175 33.6786 78.0773 34.6425C79.6371 35.6064 80.8978 36.9856 81.718 38.6256L86.2704 47.727C87.0736 47.3978 87.8734 47.0654 88.6503 46.6803C89.4316 46.29 90.336 46.2262 91.1644 46.5027C91.9928 46.7793 92.6775 47.3736 93.0677 48.1549C93.4579 48.9363 93.5218 49.8406 93.2452 50.669C92.9687 51.4975 92.3744 52.1821 91.593 52.5723C89.9669 53.3821 89.223 53.6323 89.223 53.6323L92.3699 59.9292C93.0578 61.3018 93.4133 62.8127 93.4133 64.3466V72.668C93.4133 74.0573 93.1201 75.431 92.5529 76.6993C91.9856 77.9676 91.1572 79.1019 90.1216 80.0281V84.1888C90.1216 85.4983 89.6014 86.7542 88.6755 87.6801C87.7495 88.6061 86.4936 89.1263 85.1841 89.1263C83.8746 89.1263 82.6188 88.6061 81.6928 87.6801C80.7668 86.7542 80.2466 85.4983 80.2466 84.1888V82.543H40.7466V84.1888C40.7466 85.4983 40.2264 86.7542 39.3005 87.6801C38.3745 88.6061 37.1186 89.1263 35.8091 89.1263C34.4996 89.1263 33.2438 88.6061 32.3178 87.6801C31.3918 86.7542 30.8716 85.4983 30.8716 84.1888V80.0281C28.8506 78.2177 27.58 75.591 27.58 72.668V64.3466C27.5806 62.8142 27.9378 61.303 28.6234 59.9325L31.7703 53.6323C30.9727 53.3023 30.1846 52.9499 29.4068 52.5756C29.0189 52.3831 28.6727 52.116 28.3881 51.7894C28.1036 51.4629 27.8863 51.0834 27.7487 50.6727C27.6111 50.262 27.5559 49.8282 27.5862 49.3962C27.6166 48.9641 27.7319 48.5423 27.9256 48.1549C28.3238 47.377 29.0123 46.7872 29.8421 46.5131C30.6719 46.2389 31.5762 46.3025 32.3595 46.6901C33.1363 47.0632 33.9241 47.4088 34.7229 47.727L39.2753 38.6256C40.0955 36.9856 41.3561 35.6064 42.916 34.6425C44.4758 33.6786 46.2732 33.168 48.1068 33.168H72.8865ZM82.9919 55.8936C77.3961 57.6613 69.4335 59.5013 60.4966 59.5013C51.5598 59.5013 43.5972 57.658 38.0014 55.8936L34.5122 62.872C34.2828 63.3297 34.1633 63.8346 34.1633 64.3466V72.668C34.1633 73.541 34.5101 74.3782 35.1274 74.9955C35.7447 75.6128 36.582 75.9596 37.455 75.9596H83.5383C84.4113 75.9596 85.2486 75.6128 85.8659 74.9955C86.4832 74.3782 86.83 73.541 86.83 72.668V64.3466C86.8294 63.8357 86.71 63.332 86.4811 62.8753L82.9919 55.8936ZM45.6841 62.793C46.9936 62.793 48.2495 63.3132 49.1755 64.2391C50.1014 65.1651 50.6216 66.421 50.6216 67.7305C50.6216 69.04 50.1014 70.2958 49.1755 71.2218C48.2495 72.1478 46.9936 72.668 45.6841 72.668C44.3746 72.668 43.1188 72.1478 42.1928 71.2218C41.2668 70.2958 40.7466 69.04 40.7466 67.7305C40.7466 66.421 41.2668 65.1651 42.1928 64.2391C43.1188 63.3132 44.3746 62.793 45.6841 62.793ZM75.3091 62.793C76.6186 62.793 77.8745 63.3132 78.8005 64.2391C79.7264 65.1651 80.2466 66.421 80.2466 67.7305C80.2466 69.04 79.7264 70.2958 78.8005 71.2218C77.8745 72.1478 76.6186 72.668 75.3091 72.668C73.9996 72.668 72.7438 72.1478 71.8178 71.2218C70.8918 70.2958 70.3716 69.04 70.3716 67.7305C70.3716 66.421 70.8918 65.1651 71.8178 64.2391C72.7438 63.3132 73.9996 62.793 75.3091 62.793ZM72.8865 39.7513H48.1068C47.4957 39.7516 46.8967 39.9221 46.3769 40.2436C45.8572 40.5651 45.4372 41.0249 45.1641 41.5716L40.9836 49.9226C46.0791 51.4532 52.9456 52.918 60.4966 52.918C68.0477 52.918 74.9141 51.4532 80.0064 49.9226L75.8292 41.5716C75.556 41.0249 75.1361 40.5651 74.6163 40.2436C74.0966 39.9221 73.4976 39.7516 72.8865 39.7513Z" fill="#493628"/>
</svg>
