<svg width="120" height="120" viewBox="0 0 120 120" fill="none" xmlns="http://www.w3.org/2000/svg">
<rect width="120" height="120" rx="60" fill="#FFCC00"/>
<path d="M70.1354 69.3342C72.5894 67.9702 72.2714 62.7142 69.4274 57.5862C68.2074 55.3782 66.7074 53.5902 65.2074 52.3402C63.4137 53.6712 61.241 54.3931 59.0074 54.4002C56.7704 54.3953 54.5939 53.6733 52.7974 52.3402C51.2974 53.5902 49.8014 55.3802 48.5774 57.5862C45.7314 62.7122 45.4174 67.9702 47.8774 69.3342C48.9734 69.9582 50.1294 69.4902 51.3214 68.3422C51.0981 69.579 50.9863 70.8334 50.9874 72.0902C50.9874 77.9662 53.2674 82.7142 56.0734 82.7142C57.7654 82.7142 58.6034 80.9842 59.0054 78.3382C59.4054 80.9662 60.2454 82.7142 61.9254 82.7142C64.7194 82.7142 67.0174 77.9642 67.0174 72.0902C67.0174 70.7702 66.8934 69.5102 66.6814 68.3442C67.8814 69.4942 69.0334 69.9702 70.1334 69.3382L70.1354 69.3342ZM59.0034 52.4002C60.1381 52.4171 61.2649 52.2082 62.3181 51.7856C63.3714 51.363 64.33 50.7351 65.1383 49.9385C65.9466 49.1419 66.5884 48.1925 67.0263 47.1456C67.4643 46.0986 67.6896 44.975 67.6892 43.8402C67.6888 42.7053 67.4627 41.5819 67.024 40.5352C66.5854 39.4885 65.9429 38.5396 65.134 37.7436C64.3252 36.9475 63.3661 36.3203 62.3126 35.8985C61.259 35.4766 60.1321 35.2685 58.9974 35.2862C56.7506 35.3213 54.6078 36.2387 53.0316 37.8403C51.4554 39.4419 50.5724 41.5991 50.5732 43.8462C50.574 46.0932 51.4585 48.2498 53.0358 49.8503C54.6131 51.4508 56.7566 52.3666 59.0034 52.4002ZM76.1914 57.8282C78.019 57.7748 79.7538 57.0112 81.0277 55.6996C82.3015 54.388 83.0141 52.6316 83.0141 50.8032C83.0141 48.9748 82.3015 47.2184 81.0277 45.9068C79.7538 44.5952 78.019 43.8316 76.1914 43.7782C74.3277 43.7785 72.5405 44.5191 71.2228 45.8371C69.9052 47.1551 69.1651 48.9425 69.1654 50.8062C69.1657 52.6699 69.9062 54.4571 71.2243 55.7747C72.5423 57.0924 74.3297 57.8325 76.1934 57.8322L76.1914 57.8282ZM84.7514 62.0882C83.7474 60.2722 82.5194 58.8042 81.2874 57.7782C79.8137 58.8701 78.0295 59.4623 76.1954 59.4682C74.6834 59.4682 73.2754 59.0542 72.0434 58.3682C73.0354 60.5542 73.6494 62.7682 73.7634 64.7482C73.9514 67.7802 73.0034 70.0282 71.1074 71.0782C70.7013 71.3021 70.2594 71.4537 69.8014 71.5262C69.6874 72.3102 69.6094 73.1262 69.6094 73.9862C69.6094 78.8122 71.4794 82.7102 73.7854 82.7102C75.1734 82.7102 75.8654 81.2902 76.1934 79.1182C76.5194 81.2782 77.2094 82.7102 78.5934 82.7102C80.8834 82.7102 82.7734 78.8102 82.7734 73.9902C82.7734 72.9042 82.6674 71.8702 82.4934 70.9102C83.4774 71.8562 84.4254 72.2462 85.3294 71.7262C87.3434 70.6062 87.0834 66.2902 84.7494 62.0862L84.7514 62.0882ZM41.8154 57.8282C43.2044 57.8274 44.5621 57.4148 45.7166 56.6425C46.8712 55.8702 47.7708 54.7729 48.3019 53.4894C48.8329 52.2059 48.9714 50.7937 48.6999 49.4314C48.4285 48.0692 47.7592 46.818 46.7767 45.8361C45.7942 44.8541 44.5426 44.1856 43.1802 43.9149C41.8178 43.6442 40.4057 43.7835 39.1225 44.3153C37.8393 44.847 36.7425 45.7473 35.9709 46.9023C35.1992 48.0573 34.7874 49.4152 34.7874 50.8042C34.7879 52.668 35.5285 54.4553 36.8464 55.7732C38.1643 57.0911 39.9516 57.8317 41.8154 57.8322V57.8282ZM46.8854 71.0722C43.7014 69.3022 43.4094 64.0242 45.9734 58.3642C44.7061 59.0839 43.2747 59.4648 41.8174 59.4702C39.9054 59.4702 38.1534 58.8302 36.7174 57.7782C35.4874 58.8022 34.2614 60.2702 33.2534 62.0842C30.9194 66.2922 30.6634 70.6082 32.6794 71.7242C33.5794 72.2402 34.5294 71.8542 35.5074 70.9122C35.3294 71.9279 35.2391 72.957 35.2374 73.9882C35.2374 78.8122 37.1074 82.7082 39.4134 82.7082C40.8014 82.7082 41.4934 81.2882 41.8214 79.1182C42.1514 81.2782 42.8414 82.7102 44.2214 82.7102C46.5154 82.7102 48.4014 78.8102 48.4014 73.9902C48.4014 73.1242 48.3214 72.3062 48.2074 71.5222C47.7443 71.45 47.2975 71.297 46.8874 71.0702L46.8854 71.0722Z" fill="#493628"/>
</svg>
